<?xml version="1.0" standalone="no"?><svg xmlns="http://www.w3.org/2000/svg" viewBox="0 0 1440 320"><path fill="#ececec" fill-opacity="1" d="M0,32L8.9,32C17.8,32,36,32,53,48C71.1,64,89,96,107,128C124.4,160,142,192,160,181.3C177.8,171,196,117,213,90.7C231.1,64,249,64,267,69.3C284.4,75,302,85,320,112C337.8,139,356,181,373,208C391.1,235,409,245,427,229.3C444.4,213,462,171,480,154.7C497.8,139,516,149,533,176C551.1,203,569,245,587,234.7C604.4,224,622,160,640,128C657.8,96,676,96,693,122.7C711.1,149,729,203,747,229.3C764.4,256,782,256,800,256C817.8,256,836,256,853,240C871.1,224,889,192,907,160C924.4,128,942,96,960,106.7C977.8,117,996,171,1013,160C1031.1,149,1049,75,1067,69.3C1084.4,64,1102,128,1120,154.7C1137.8,181,1156,171,1173,181.3C1191.1,192,1209,224,1227,240C1244.4,256,1262,256,1280,234.7C1297.8,213,1316,171,1333,128C1351.1,85,1369,43,1387,32C1404.4,21,1422,43,1431,53.3L1440,64L1440,320L1431.1,320C1422.2,320,1404,320,1387,320C1368.9,320,1351,320,1333,320C1315.6,320,1298,320,1280,320C1262.2,320,1244,320,1227,320C1208.9,320,1191,320,1173,320C1155.6,320,1138,320,1120,320C1102.2,320,1084,320,1067,320C1048.9,320,1031,320,1013,320C995.6,320,978,320,960,320C942.2,320,924,320,907,320C888.9,320,871,320,853,320C835.6,320,818,320,800,320C782.2,320,764,320,747,320C728.9,320,711,320,693,320C675.6,320,658,320,640,320C622.2,320,604,320,587,320C568.9,320,551,320,533,320C515.6,320,498,320,480,320C462.2,320,444,320,427,320C408.9,320,391,320,373,320C355.6,320,338,320,320,320C302.2,320,284,320,267,320C248.9,320,231,320,213,320C195.6,320,178,320,160,320C142.2,320,124,320,107,320C88.9,320,71,320,53,320C35.6,320,18,320,9,320L0,320Z"></path></svg>